<svg width="210" height="209" viewBox="0 0 210 209" fill="none" xmlns="http://www.w3.org/2000/svg">
<mask id="mask0_102_9" style="mask-type:alpha" maskUnits="userSpaceOnUse" x="14" y="9" width="186" height="191">
<path d="M17.1709 86.5936C25.8318 64.7925 41.3807 45.1356 61.1176 31.0363C80.8545 16.9371 103.533 9.2858 125.215 9.41115C146.897 9.5365 166.213 17.4305 179.809 31.7225C193.405 46.0145 200.423 65.8018 199.643 87.6485C198.863 109.495 190.336 132.021 175.541 151.316C160.746 170.61 140.619 185.454 118.653 193.27C96.6881 201.086 74.2723 201.38 55.2983 194.101C36.3243 186.823 21.9905 172.431 14.7859 153.425L22.7051 149.105C29.275 166.436 42.346 179.559 59.6483 186.197C76.9507 192.834 97.3916 192.566 117.422 185.439C137.452 178.311 155.806 164.775 169.297 147.181C182.789 129.586 190.565 109.045 191.276 89.1227C191.987 69.2008 185.588 51.1568 173.189 38.1239C160.791 25.0911 143.177 17.8925 123.405 17.7782C103.633 17.6639 82.953 24.6411 64.955 37.4982C46.9569 50.3553 32.778 68.2803 24.8801 88.1607L17.1709 86.5936Z" fill="url(#paint0_angular_102_9)"/>
</mask>
<g mask="url(#mask0_102_9)">
<path d="M11.3419 141.493C12.1265 145.33 13.18 149.056 14.4955 152.646L22.4404 148.394C21.2408 145.12 20.2801 141.723 19.5646 138.223L11.3419 141.493Z" fill="url(#paint1_angular_102_9)"/>
<path d="M14.7379 153.298C16.085 156.872 17.6906 160.3 19.5442 163.56L27.0442 158.346C25.3539 155.373 23.8898 152.247 22.6614 148.989L14.7379 153.298Z" fill="url(#paint2_angular_102_9)"/>
<path d="M19.8843 164.152C21.7678 167.391 23.8942 170.455 26.2498 173.322L33.1591 167.248C31.011 164.634 29.0719 161.84 27.3544 158.886L19.8843 164.152Z" fill="url(#paint3_angular_102_9)"/>
<path d="M26.6811 173.842C29.0642 176.685 31.67 179.324 34.4818 181.742L40.6658 174.927C38.1018 172.721 35.7255 170.315 33.5524 167.722L26.6811 173.842Z" fill="url(#paint4_angular_102_9)"/>
<path d="M34.996 182.18C37.8323 184.571 40.8669 186.734 44.0801 188.657L49.4185 181.232C46.4884 179.479 43.7211 177.506 41.1347 175.326L34.996 182.18Z" fill="url(#paint5_angular_102_9)"/>
<path d="M44.667 189.004C47.9013 190.896 51.3056 192.542 54.8577 193.931L59.2466 186.041C56.0074 184.775 52.9031 183.274 49.9537 181.548L44.667 189.004Z" fill="url(#paint6_angular_102_9)"/>
<path d="M55.5059 194.18C59.0754 195.538 62.7831 196.634 66.6049 197.462L69.9588 189.261C66.4737 188.506 63.0927 187.507 59.8377 186.269L55.5059 194.18Z" fill="url(#paint7_angular_102_9)"/>
<path d="M67.3019 197.609C71.137 198.405 75.0759 198.93 79.0931 199.181L81.3468 190.829C77.6835 190.6 74.0916 190.121 70.5944 189.396L67.3019 197.609Z" fill="url(#paint8_angular_102_9)"/>
<path d="M79.8253 199.224C83.8513 199.442 87.9448 199.386 92.0792 199.055L93.1888 190.714C89.4187 191.015 85.6858 191.067 82.0145 190.868L79.8253 199.224Z" fill="url(#paint9_angular_102_9)"/>
<path d="M92.8323 198.992C96.971 198.629 101.139 197.992 105.31 197.087L105.254 188.919C101.451 189.745 97.6496 190.325 93.8755 190.657L92.8323 198.992Z" fill="url(#paint10_angular_102_9)"/>
<path d="M106.07 196.919C110.241 195.981 114.403 194.777 118.529 193.314L117.309 185.479C113.546 186.813 109.75 187.911 105.947 188.766L106.07 196.919Z" fill="url(#paint11_angular_102_9)"/>
<path d="M119.28 193.045C123.402 191.551 127.477 189.802 131.478 187.81L129.117 180.46C125.468 182.276 121.752 183.871 117.993 185.233L119.28 193.045Z" fill="url(#paint12_angular_102_9)"/>
<path d="M132.206 187.445C136.198 185.424 140.107 183.165 143.906 180.682L140.449 173.96C136.985 176.224 133.421 178.284 129.78 180.127L132.206 187.445Z" fill="url(#paint13_angular_102_9)"/>
<path d="M144.596 180.228C148.381 177.719 152.047 174.994 155.57 172.07L151.086 166.106C147.874 168.773 144.531 171.258 141.079 173.546L144.596 180.228Z" fill="url(#paint14_angular_102_9)"/>
<path d="M156.209 171.535C159.714 168.587 163.066 165.448 166.243 162.139L160.818 157.051C157.921 160.068 154.865 162.931 151.669 165.619L156.209 171.535Z" fill="url(#paint15_angular_102_9)"/>
<path d="M166.819 161.535C169.975 158.206 172.947 154.715 175.718 151.085L169.459 146.97C166.932 150.28 164.222 153.464 161.344 156.5L166.819 161.535Z" fill="url(#paint16_angular_102_9)"/>
<path d="M176.22 150.422C178.965 146.776 181.5 143.001 183.81 139.121L176.838 136.061C174.732 139.599 172.42 143.041 169.916 146.366L176.22 150.422Z" fill="url(#paint17_angular_102_9)"/>
<path d="M184.228 138.414C186.509 134.522 188.558 130.536 190.361 126.482L182.812 124.535C181.168 128.232 179.299 131.867 177.219 135.416L184.228 138.414Z" fill="url(#paint18_angular_102_9)"/>
<path d="M190.687 125.743C192.46 121.681 193.983 117.562 195.245 113.412L187.266 112.616C186.115 116.401 184.726 120.157 183.109 123.861L190.687 125.743Z" fill="url(#paint19_angular_102_9)"/>
<path d="M195.472 112.656C196.703 108.503 197.67 104.331 198.366 100.166L190.112 100.538C189.476 104.335 188.595 108.14 187.473 111.927L195.472 112.656Z" fill="url(#paint20_angular_102_9)"/>
<path d="M198.49 99.4083C199.154 95.2453 199.546 91.1012 199.664 87.0028L191.295 88.534C191.188 92.2712 190.83 96.0502 190.225 99.8465L198.49 99.4083Z" fill="url(#paint21_angular_102_9)"/>
<path d="M199.682 86.2573C199.766 82.1652 199.576 78.1299 199.112 74.1776L190.792 76.8387C191.215 80.4427 191.389 84.1225 191.312 87.8541L199.682 86.2573Z" fill="url(#paint22_angular_102_9)"/>
<path d="M199.025 73.459C198.528 69.5175 197.759 65.6696 196.723 61.9402L188.613 65.6794C189.558 69.0802 190.259 72.5891 190.712 76.1834L199.025 73.459Z" fill="url(#paint23_angular_102_9)"/>
<path d="M196.531 61.2627C195.463 57.5484 194.13 53.9627 192.541 50.529L184.8 55.2735C186.249 58.4047 187.464 61.6745 188.438 65.0616L196.531 61.2627Z" fill="url(#paint24_angular_102_9)"/>
<path d="M192.249 49.9056C190.63 46.4908 188.76 43.2372 186.65 40.1659L179.428 45.8234C181.352 48.6242 183.057 51.5911 184.534 54.705L192.249 49.9056Z" fill="url(#paint25_angular_102_9)"/>
<path d="M186.263 39.6088C184.125 36.56 181.753 33.7018 179.163 31.0526L172.6 37.5131C174.962 39.9288 177.125 42.5353 179.075 45.3154L186.263 39.6088Z" fill="url(#paint26_angular_102_9)"/>
<path d="M178.689 30.5727C176.073 27.9493 173.246 25.5421 170.226 23.3667L164.451 30.5043C167.205 32.4881 169.783 34.6832 172.168 37.0754L178.689 30.5727Z" fill="url(#paint27_angular_102_9)"/>
<path d="M169.674 22.9732C166.631 20.8263 163.404 18.917 160.013 17.2576L155.138 24.9334C158.23 26.4466 161.173 28.1877 163.947 30.1455L169.674 22.9732Z" fill="url(#paint28_angular_102_9)"/>
<path d="M159.394 16.9583C155.984 15.3296 152.419 13.9553 148.723 12.8443L144.842 20.9089C148.213 21.922 151.463 23.1752 154.573 24.6605L159.394 16.9583Z" fill="url(#paint29_angular_102_9)"/>
<path d="M148.049 12.645C144.338 11.5662 140.505 10.7536 136.576 10.2127L133.765 18.5091C137.348 19.0024 140.843 19.7434 144.228 20.7272L148.049 12.645Z" fill="url(#paint30_angular_102_9)"/>
<path d="M135.86 10.1172C131.919 9.60927 127.893 9.37434 123.808 9.41391L122.122 17.7808C125.848 17.7447 129.519 17.9589 133.112 18.4221L135.86 10.1172Z" fill="url(#paint31_angular_102_9)"/>
<path d="M123.063 9.42415C118.971 9.49703 114.83 9.84427 110.667 10.4636L110.139 18.738C113.935 18.1732 117.711 17.8566 121.443 17.7901L123.063 9.42415Z" fill="url(#paint32_angular_102_9)"/>
<path d="M109.909 10.5794C105.744 11.2316 101.569 12.1543 97.4097 13.3413L98.0497 21.3621C101.842 20.2797 105.65 19.4383 109.448 18.8435L109.909 10.5794Z" fill="url(#paint33_angular_102_9)"/>
<path d="M96.6528 13.5603C92.4965 14.7793 88.3679 16.2594 84.2937 17.991L86.0892 25.6022C89.8044 24.0231 93.5693 22.6734 97.3595 21.5619L96.6528 13.5603Z" fill="url(#paint34_angular_102_9)"/>
<path d="M83.5527 18.309C79.4858 20.0709 75.4844 22.0797 71.5744 24.3222L74.4906 31.3756C78.0561 29.3306 81.7049 27.4989 85.4135 25.8922L83.5527 18.309Z" fill="url(#paint35_angular_102_9)"/>
<path d="M70.8637 24.733C66.9655 27.0036 63.1691 29.5019 59.4994 32.2117L63.4793 38.57C66.8258 36.0989 70.2876 33.8208 73.8424 31.7502L70.8637 24.733Z" fill="url(#paint36_angular_102_9)"/>
<path d="M58.8328 32.7073C55.179 35.4423 51.6617 38.3815 48.3037 41.5059L53.27 47.0453C56.3322 44.1963 59.5396 41.516 62.8715 39.0219L58.8328 32.7073Z" fill="url(#paint37_angular_102_9)"/>
<path d="M47.6942 42.0766C44.356 45.2229 41.1861 48.5458 38.2051 52.0238L44.0611 56.6367C46.7795 53.4651 49.6701 50.4349 52.7142 47.5658L47.6942 42.0766Z" fill="url(#paint38_angular_102_9)"/>
<path d="M37.6645 52.6586C34.7069 56.1549 31.9462 59.7969 29.4002 63.5609L36.0319 67.1573C38.3536 63.7249 40.8711 60.4038 43.5682 57.2155L37.6645 52.6586Z" fill="url(#paint39_angular_102_9)"/>
<path d="M28.9391 64.2474C26.4197 68.0256 24.1218 71.9157 22.0605 75.8925L29.3388 78.4025C31.2186 74.7761 33.314 71.2287 35.6115 67.7833L28.9391 64.2474Z" fill="url(#paint40_angular_102_9)"/>
<path d="M21.6879 76.6173C19.6556 80.604 17.8653 84.6665 16.3287 88.7786L24.112 90.1533C25.5133 86.4035 27.1458 82.6988 28.9991 79.0634L21.6879 76.6173Z" fill="url(#paint41_angular_102_9)"/>
</g>
<defs>
<radialGradient id="paint0_angular_102_9" cx="0" cy="0" r="1" gradientUnits="userSpaceOnUse" gradientTransform="translate(124.067 102.343) rotate(-65.3595) scale(107.939 93.6267)">
<stop offset="0.0666082" stop-color="#99FF5A"/>
<stop offset="0.32953" stop-color="#99FF5A"/>
<stop offset="0.503128" stop-color="#99FF5A"/>
<stop offset="0.639115" stop-color="#99FF5A" stop-opacity="0"/>
<stop offset="0.734924" stop-color="#99FF5A" stop-opacity="0"/>
<stop offset="0.87193" stop-color="#99FF5A"/>
<stop offset="0.99363" stop-color="#99FF5A"/>
</radialGradient>
<radialGradient id="paint1_angular_102_9" cx="0" cy="0" r="1" gradientUnits="userSpaceOnUse" gradientTransform="translate(124.067 102.343) rotate(-65.3595) scale(107.939 93.6267)">
<stop offset="0.0666082" stop-color="#99FF5A"/>
<stop offset="0.32953" stop-color="#99FF5A"/>
<stop offset="0.503128" stop-color="#99FF5A"/>
<stop offset="0.639115" stop-color="#99FF5A" stop-opacity="0"/>
<stop offset="0.734924" stop-color="#99FF5A" stop-opacity="0"/>
<stop offset="0.87193" stop-color="#99FF5A"/>
<stop offset="0.99363" stop-color="#99FF5A"/>
</radialGradient>
<radialGradient id="paint2_angular_102_9" cx="0" cy="0" r="1" gradientUnits="userSpaceOnUse" gradientTransform="translate(124.067 102.343) rotate(-65.3595) scale(107.939 93.6267)">
<stop offset="0.0666082" stop-color="#99FF5A"/>
<stop offset="0.32953" stop-color="#99FF5A"/>
<stop offset="0.503128" stop-color="#99FF5A"/>
<stop offset="0.639115" stop-color="#99FF5A" stop-opacity="0"/>
<stop offset="0.734924" stop-color="#99FF5A" stop-opacity="0"/>
<stop offset="0.87193" stop-color="#99FF5A"/>
<stop offset="0.99363" stop-color="#99FF5A"/>
</radialGradient>
<radialGradient id="paint3_angular_102_9" cx="0" cy="0" r="1" gradientUnits="userSpaceOnUse" gradientTransform="translate(124.067 102.343) rotate(-65.3595) scale(107.939 93.6267)">
<stop offset="0.0666082" stop-color="#99FF5A"/>
<stop offset="0.32953" stop-color="#99FF5A"/>
<stop offset="0.503128" stop-color="#99FF5A"/>
<stop offset="0.639115" stop-color="#99FF5A" stop-opacity="0"/>
<stop offset="0.734924" stop-color="#99FF5A" stop-opacity="0"/>
<stop offset="0.87193" stop-color="#99FF5A"/>
<stop offset="0.99363" stop-color="#99FF5A"/>
</radialGradient>
<radialGradient id="paint4_angular_102_9" cx="0" cy="0" r="1" gradientUnits="userSpaceOnUse" gradientTransform="translate(124.067 102.343) rotate(-65.3595) scale(107.939 93.6267)">
<stop offset="0.0666082" stop-color="#99FF5A"/>
<stop offset="0.32953" stop-color="#99FF5A"/>
<stop offset="0.503128" stop-color="#99FF5A"/>
<stop offset="0.639115" stop-color="#99FF5A" stop-opacity="0"/>
<stop offset="0.734924" stop-color="#99FF5A" stop-opacity="0"/>
<stop offset="0.87193" stop-color="#99FF5A"/>
<stop offset="0.99363" stop-color="#99FF5A"/>
</radialGradient>
<radialGradient id="paint5_angular_102_9" cx="0" cy="0" r="1" gradientUnits="userSpaceOnUse" gradientTransform="translate(124.067 102.343) rotate(-65.3595) scale(107.939 93.6267)">
<stop offset="0.0666082" stop-color="#99FF5A"/>
<stop offset="0.32953" stop-color="#99FF5A"/>
<stop offset="0.503128" stop-color="#99FF5A"/>
<stop offset="0.639115" stop-color="#99FF5A" stop-opacity="0"/>
<stop offset="0.734924" stop-color="#99FF5A" stop-opacity="0"/>
<stop offset="0.87193" stop-color="#99FF5A"/>
<stop offset="0.99363" stop-color="#99FF5A"/>
</radialGradient>
<radialGradient id="paint6_angular_102_9" cx="0" cy="0" r="1" gradientUnits="userSpaceOnUse" gradientTransform="translate(124.067 102.343) rotate(-65.3595) scale(107.939 93.6267)">
<stop offset="0.0666082" stop-color="#99FF5A"/>
<stop offset="0.32953" stop-color="#99FF5A"/>
<stop offset="0.503128" stop-color="#99FF5A"/>
<stop offset="0.639115" stop-color="#99FF5A" stop-opacity="0"/>
<stop offset="0.734924" stop-color="#99FF5A" stop-opacity="0"/>
<stop offset="0.87193" stop-color="#99FF5A"/>
<stop offset="0.99363" stop-color="#99FF5A"/>
</radialGradient>
<radialGradient id="paint7_angular_102_9" cx="0" cy="0" r="1" gradientUnits="userSpaceOnUse" gradientTransform="translate(124.067 102.343) rotate(-65.3595) scale(107.939 93.6267)">
<stop offset="0.0666082" stop-color="#99FF5A"/>
<stop offset="0.32953" stop-color="#99FF5A"/>
<stop offset="0.503128" stop-color="#99FF5A"/>
<stop offset="0.639115" stop-color="#99FF5A" stop-opacity="0"/>
<stop offset="0.734924" stop-color="#99FF5A" stop-opacity="0"/>
<stop offset="0.87193" stop-color="#99FF5A"/>
<stop offset="0.99363" stop-color="#99FF5A"/>
</radialGradient>
<radialGradient id="paint8_angular_102_9" cx="0" cy="0" r="1" gradientUnits="userSpaceOnUse" gradientTransform="translate(124.067 102.343) rotate(-65.3595) scale(107.939 93.6267)">
<stop offset="0.0666082" stop-color="#99FF5A"/>
<stop offset="0.32953" stop-color="#99FF5A"/>
<stop offset="0.503128" stop-color="#99FF5A"/>
<stop offset="0.639115" stop-color="#99FF5A" stop-opacity="0"/>
<stop offset="0.734924" stop-color="#99FF5A" stop-opacity="0"/>
<stop offset="0.87193" stop-color="#99FF5A"/>
<stop offset="0.99363" stop-color="#99FF5A"/>
</radialGradient>
<radialGradient id="paint9_angular_102_9" cx="0" cy="0" r="1" gradientUnits="userSpaceOnUse" gradientTransform="translate(124.067 102.343) rotate(-65.3595) scale(107.939 93.6267)">
<stop offset="0.0666082" stop-color="#99FF5A"/>
<stop offset="0.32953" stop-color="#99FF5A"/>
<stop offset="0.503128" stop-color="#99FF5A"/>
<stop offset="0.639115" stop-color="#99FF5A" stop-opacity="0"/>
<stop offset="0.734924" stop-color="#99FF5A" stop-opacity="0"/>
<stop offset="0.87193" stop-color="#99FF5A"/>
<stop offset="0.99363" stop-color="#99FF5A"/>
</radialGradient>
<radialGradient id="paint10_angular_102_9" cx="0" cy="0" r="1" gradientUnits="userSpaceOnUse" gradientTransform="translate(124.067 102.343) rotate(-65.3595) scale(107.939 93.6267)">
<stop offset="0.0666082" stop-color="#99FF5A"/>
<stop offset="0.32953" stop-color="#99FF5A"/>
<stop offset="0.503128" stop-color="#99FF5A"/>
<stop offset="0.639115" stop-color="#99FF5A" stop-opacity="0"/>
<stop offset="0.734924" stop-color="#99FF5A" stop-opacity="0"/>
<stop offset="0.87193" stop-color="#99FF5A"/>
<stop offset="0.99363" stop-color="#99FF5A"/>
</radialGradient>
<radialGradient id="paint11_angular_102_9" cx="0" cy="0" r="1" gradientUnits="userSpaceOnUse" gradientTransform="translate(124.067 102.343) rotate(-65.3595) scale(107.939 93.6267)">
<stop offset="0.0666082" stop-color="#99FF5A"/>
<stop offset="0.32953" stop-color="#99FF5A"/>
<stop offset="0.503128" stop-color="#99FF5A"/>
<stop offset="0.639115" stop-color="#99FF5A" stop-opacity="0"/>
<stop offset="0.734924" stop-color="#99FF5A" stop-opacity="0"/>
<stop offset="0.87193" stop-color="#99FF5A"/>
<stop offset="0.99363" stop-color="#99FF5A"/>
</radialGradient>
<radialGradient id="paint12_angular_102_9" cx="0" cy="0" r="1" gradientUnits="userSpaceOnUse" gradientTransform="translate(124.067 102.343) rotate(-65.3595) scale(107.939 93.6267)">
<stop offset="0.0666082" stop-color="#99FF5A"/>
<stop offset="0.32953" stop-color="#99FF5A"/>
<stop offset="0.503128" stop-color="#99FF5A"/>
<stop offset="0.639115" stop-color="#99FF5A" stop-opacity="0"/>
<stop offset="0.734924" stop-color="#99FF5A" stop-opacity="0"/>
<stop offset="0.87193" stop-color="#99FF5A"/>
<stop offset="0.99363" stop-color="#99FF5A"/>
</radialGradient>
<radialGradient id="paint13_angular_102_9" cx="0" cy="0" r="1" gradientUnits="userSpaceOnUse" gradientTransform="translate(124.067 102.343) rotate(-65.3595) scale(107.939 93.6267)">
<stop offset="0.0666082" stop-color="#99FF5A"/>
<stop offset="0.32953" stop-color="#99FF5A"/>
<stop offset="0.503128" stop-color="#99FF5A"/>
<stop offset="0.639115" stop-color="#99FF5A" stop-opacity="0"/>
<stop offset="0.734924" stop-color="#99FF5A" stop-opacity="0"/>
<stop offset="0.87193" stop-color="#99FF5A"/>
<stop offset="0.99363" stop-color="#99FF5A"/>
</radialGradient>
<radialGradient id="paint14_angular_102_9" cx="0" cy="0" r="1" gradientUnits="userSpaceOnUse" gradientTransform="translate(124.067 102.343) rotate(-65.3595) scale(107.939 93.6267)">
<stop offset="0.0666082" stop-color="#99FF5A"/>
<stop offset="0.32953" stop-color="#99FF5A"/>
<stop offset="0.503128" stop-color="#99FF5A"/>
<stop offset="0.639115" stop-color="#99FF5A" stop-opacity="0"/>
<stop offset="0.734924" stop-color="#99FF5A" stop-opacity="0"/>
<stop offset="0.87193" stop-color="#99FF5A"/>
<stop offset="0.99363" stop-color="#99FF5A"/>
</radialGradient>
<radialGradient id="paint15_angular_102_9" cx="0" cy="0" r="1" gradientUnits="userSpaceOnUse" gradientTransform="translate(124.067 102.343) rotate(-65.3595) scale(107.939 93.6267)">
<stop offset="0.0666082" stop-color="#99FF5A"/>
<stop offset="0.32953" stop-color="#99FF5A"/>
<stop offset="0.503128" stop-color="#99FF5A"/>
<stop offset="0.639115" stop-color="#99FF5A" stop-opacity="0"/>
<stop offset="0.734924" stop-color="#99FF5A" stop-opacity="0"/>
<stop offset="0.87193" stop-color="#99FF5A"/>
<stop offset="0.99363" stop-color="#99FF5A"/>
</radialGradient>
<radialGradient id="paint16_angular_102_9" cx="0" cy="0" r="1" gradientUnits="userSpaceOnUse" gradientTransform="translate(124.067 102.343) rotate(-65.3595) scale(107.939 93.6267)">
<stop offset="0.0666082" stop-color="#99FF5A"/>
<stop offset="0.32953" stop-color="#99FF5A"/>
<stop offset="0.503128" stop-color="#99FF5A"/>
<stop offset="0.639115" stop-color="#99FF5A" stop-opacity="0"/>
<stop offset="0.734924" stop-color="#99FF5A" stop-opacity="0"/>
<stop offset="0.87193" stop-color="#99FF5A"/>
<stop offset="0.99363" stop-color="#99FF5A"/>
</radialGradient>
<radialGradient id="paint17_angular_102_9" cx="0" cy="0" r="1" gradientUnits="userSpaceOnUse" gradientTransform="translate(124.067 102.343) rotate(-65.3595) scale(107.939 93.6267)">
<stop offset="0.0666082" stop-color="#99FF5A"/>
<stop offset="0.32953" stop-color="#99FF5A"/>
<stop offset="0.503128" stop-color="#99FF5A"/>
<stop offset="0.639115" stop-color="#99FF5A" stop-opacity="0"/>
<stop offset="0.734924" stop-color="#99FF5A" stop-opacity="0"/>
<stop offset="0.87193" stop-color="#99FF5A"/>
<stop offset="0.99363" stop-color="#99FF5A"/>
</radialGradient>
<radialGradient id="paint18_angular_102_9" cx="0" cy="0" r="1" gradientUnits="userSpaceOnUse" gradientTransform="translate(124.067 102.343) rotate(-65.3595) scale(107.939 93.6267)">
<stop offset="0.0666082" stop-color="#99FF5A"/>
<stop offset="0.32953" stop-color="#99FF5A"/>
<stop offset="0.503128" stop-color="#99FF5A"/>
<stop offset="0.639115" stop-color="#99FF5A" stop-opacity="0"/>
<stop offset="0.734924" stop-color="#99FF5A" stop-opacity="0"/>
<stop offset="0.87193" stop-color="#99FF5A"/>
<stop offset="0.99363" stop-color="#99FF5A"/>
</radialGradient>
<radialGradient id="paint19_angular_102_9" cx="0" cy="0" r="1" gradientUnits="userSpaceOnUse" gradientTransform="translate(124.067 102.343) rotate(-65.3595) scale(107.939 93.6267)">
<stop offset="0.0666082" stop-color="#99FF5A"/>
<stop offset="0.32953" stop-color="#99FF5A"/>
<stop offset="0.503128" stop-color="#99FF5A"/>
<stop offset="0.639115" stop-color="#99FF5A" stop-opacity="0"/>
<stop offset="0.734924" stop-color="#99FF5A" stop-opacity="0"/>
<stop offset="0.87193" stop-color="#99FF5A"/>
<stop offset="0.99363" stop-color="#99FF5A"/>
</radialGradient>
<radialGradient id="paint20_angular_102_9" cx="0" cy="0" r="1" gradientUnits="userSpaceOnUse" gradientTransform="translate(124.067 102.343) rotate(-65.3595) scale(107.939 93.6267)">
<stop offset="0.0666082" stop-color="#99FF5A"/>
<stop offset="0.32953" stop-color="#99FF5A"/>
<stop offset="0.503128" stop-color="#99FF5A"/>
<stop offset="0.639115" stop-color="#99FF5A" stop-opacity="0"/>
<stop offset="0.734924" stop-color="#99FF5A" stop-opacity="0"/>
<stop offset="0.87193" stop-color="#99FF5A"/>
<stop offset="0.99363" stop-color="#99FF5A"/>
</radialGradient>
<radialGradient id="paint21_angular_102_9" cx="0" cy="0" r="1" gradientUnits="userSpaceOnUse" gradientTransform="translate(124.067 102.343) rotate(-65.3595) scale(107.939 93.6267)">
<stop offset="0.0666082" stop-color="#99FF5A"/>
<stop offset="0.32953" stop-color="#99FF5A"/>
<stop offset="0.503128" stop-color="#99FF5A"/>
<stop offset="0.639115" stop-color="#99FF5A" stop-opacity="0"/>
<stop offset="0.734924" stop-color="#99FF5A" stop-opacity="0"/>
<stop offset="0.87193" stop-color="#99FF5A"/>
<stop offset="0.99363" stop-color="#99FF5A"/>
</radialGradient>
<radialGradient id="paint22_angular_102_9" cx="0" cy="0" r="1" gradientUnits="userSpaceOnUse" gradientTransform="translate(124.067 102.343) rotate(-65.3595) scale(107.939 93.6267)">
<stop offset="0.0666082" stop-color="#99FF5A"/>
<stop offset="0.32953" stop-color="#99FF5A"/>
<stop offset="0.503128" stop-color="#99FF5A"/>
<stop offset="0.639115" stop-color="#99FF5A" stop-opacity="0"/>
<stop offset="0.734924" stop-color="#99FF5A" stop-opacity="0"/>
<stop offset="0.87193" stop-color="#99FF5A"/>
<stop offset="0.99363" stop-color="#99FF5A"/>
</radialGradient>
<radialGradient id="paint23_angular_102_9" cx="0" cy="0" r="1" gradientUnits="userSpaceOnUse" gradientTransform="translate(124.067 102.343) rotate(-65.3595) scale(107.939 93.6267)">
<stop offset="0.0666082" stop-color="#99FF5A"/>
<stop offset="0.32953" stop-color="#99FF5A"/>
<stop offset="0.503128" stop-color="#99FF5A"/>
<stop offset="0.639115" stop-color="#99FF5A" stop-opacity="0"/>
<stop offset="0.734924" stop-color="#99FF5A" stop-opacity="0"/>
<stop offset="0.87193" stop-color="#99FF5A"/>
<stop offset="0.99363" stop-color="#99FF5A"/>
</radialGradient>
<radialGradient id="paint24_angular_102_9" cx="0" cy="0" r="1" gradientUnits="userSpaceOnUse" gradientTransform="translate(124.067 102.343) rotate(-65.3595) scale(107.939 93.6267)">
<stop offset="0.0666082" stop-color="#99FF5A"/>
<stop offset="0.32953" stop-color="#99FF5A"/>
<stop offset="0.503128" stop-color="#99FF5A"/>
<stop offset="0.639115" stop-color="#99FF5A" stop-opacity="0"/>
<stop offset="0.734924" stop-color="#99FF5A" stop-opacity="0"/>
<stop offset="0.87193" stop-color="#99FF5A"/>
<stop offset="0.99363" stop-color="#99FF5A"/>
</radialGradient>
<radialGradient id="paint25_angular_102_9" cx="0" cy="0" r="1" gradientUnits="userSpaceOnUse" gradientTransform="translate(124.067 102.343) rotate(-65.3595) scale(107.939 93.6267)">
<stop offset="0.0666082" stop-color="#99FF5A"/>
<stop offset="0.32953" stop-color="#99FF5A"/>
<stop offset="0.503128" stop-color="#99FF5A"/>
<stop offset="0.639115" stop-color="#99FF5A" stop-opacity="0"/>
<stop offset="0.734924" stop-color="#99FF5A" stop-opacity="0"/>
<stop offset="0.87193" stop-color="#99FF5A"/>
<stop offset="0.99363" stop-color="#99FF5A"/>
</radialGradient>
<radialGradient id="paint26_angular_102_9" cx="0" cy="0" r="1" gradientUnits="userSpaceOnUse" gradientTransform="translate(124.067 102.343) rotate(-65.3595) scale(107.939 93.6267)">
<stop offset="0.0666082" stop-color="#99FF5A"/>
<stop offset="0.32953" stop-color="#99FF5A"/>
<stop offset="0.503128" stop-color="#99FF5A"/>
<stop offset="0.639115" stop-color="#99FF5A" stop-opacity="0"/>
<stop offset="0.734924" stop-color="#99FF5A" stop-opacity="0"/>
<stop offset="0.87193" stop-color="#99FF5A"/>
<stop offset="0.99363" stop-color="#99FF5A"/>
</radialGradient>
<radialGradient id="paint27_angular_102_9" cx="0" cy="0" r="1" gradientUnits="userSpaceOnUse" gradientTransform="translate(124.067 102.343) rotate(-65.3595) scale(107.939 93.6267)">
<stop offset="0.0666082" stop-color="#99FF5A"/>
<stop offset="0.32953" stop-color="#99FF5A"/>
<stop offset="0.503128" stop-color="#99FF5A"/>
<stop offset="0.639115" stop-color="#99FF5A" stop-opacity="0"/>
<stop offset="0.734924" stop-color="#99FF5A" stop-opacity="0"/>
<stop offset="0.87193" stop-color="#99FF5A"/>
<stop offset="0.99363" stop-color="#99FF5A"/>
</radialGradient>
<radialGradient id="paint28_angular_102_9" cx="0" cy="0" r="1" gradientUnits="userSpaceOnUse" gradientTransform="translate(124.067 102.343) rotate(-65.3595) scale(107.939 93.6267)">
<stop offset="0.0666082" stop-color="#99FF5A"/>
<stop offset="0.32953" stop-color="#99FF5A"/>
<stop offset="0.503128" stop-color="#99FF5A"/>
<stop offset="0.639115" stop-color="#99FF5A" stop-opacity="0"/>
<stop offset="0.734924" stop-color="#99FF5A" stop-opacity="0"/>
<stop offset="0.87193" stop-color="#99FF5A"/>
<stop offset="0.99363" stop-color="#99FF5A"/>
</radialGradient>
<radialGradient id="paint29_angular_102_9" cx="0" cy="0" r="1" gradientUnits="userSpaceOnUse" gradientTransform="translate(124.067 102.343) rotate(-65.3595) scale(107.939 93.6267)">
<stop offset="0.0666082" stop-color="#99FF5A"/>
<stop offset="0.32953" stop-color="#99FF5A"/>
<stop offset="0.503128" stop-color="#99FF5A"/>
<stop offset="0.639115" stop-color="#99FF5A" stop-opacity="0"/>
<stop offset="0.734924" stop-color="#99FF5A" stop-opacity="0"/>
<stop offset="0.87193" stop-color="#99FF5A"/>
<stop offset="0.99363" stop-color="#99FF5A"/>
</radialGradient>
<radialGradient id="paint30_angular_102_9" cx="0" cy="0" r="1" gradientUnits="userSpaceOnUse" gradientTransform="translate(124.067 102.343) rotate(-65.3595) scale(107.939 93.6267)">
<stop offset="0.0666082" stop-color="#99FF5A"/>
<stop offset="0.32953" stop-color="#99FF5A"/>
<stop offset="0.503128" stop-color="#99FF5A"/>
<stop offset="0.639115" stop-color="#99FF5A" stop-opacity="0"/>
<stop offset="0.734924" stop-color="#99FF5A" stop-opacity="0"/>
<stop offset="0.87193" stop-color="#99FF5A"/>
<stop offset="0.99363" stop-color="#99FF5A"/>
</radialGradient>
<radialGradient id="paint31_angular_102_9" cx="0" cy="0" r="1" gradientUnits="userSpaceOnUse" gradientTransform="translate(124.067 102.343) rotate(-65.3595) scale(107.939 93.6267)">
<stop offset="0.0666082" stop-color="#99FF5A"/>
<stop offset="0.32953" stop-color="#99FF5A"/>
<stop offset="0.503128" stop-color="#99FF5A"/>
<stop offset="0.639115" stop-color="#99FF5A" stop-opacity="0"/>
<stop offset="0.734924" stop-color="#99FF5A" stop-opacity="0"/>
<stop offset="0.87193" stop-color="#99FF5A"/>
<stop offset="0.99363" stop-color="#99FF5A"/>
</radialGradient>
<radialGradient id="paint32_angular_102_9" cx="0" cy="0" r="1" gradientUnits="userSpaceOnUse" gradientTransform="translate(124.067 102.343) rotate(-65.3595) scale(107.939 93.6267)">
<stop offset="0.0666082" stop-color="#99FF5A"/>
<stop offset="0.32953" stop-color="#99FF5A"/>
<stop offset="0.503128" stop-color="#99FF5A"/>
<stop offset="0.639115" stop-color="#99FF5A" stop-opacity="0"/>
<stop offset="0.734924" stop-color="#99FF5A" stop-opacity="0"/>
<stop offset="0.87193" stop-color="#99FF5A"/>
<stop offset="0.99363" stop-color="#99FF5A"/>
</radialGradient>
<radialGradient id="paint33_angular_102_9" cx="0" cy="0" r="1" gradientUnits="userSpaceOnUse" gradientTransform="translate(124.067 102.343) rotate(-65.3595) scale(107.939 93.6267)">
<stop offset="0.0666082" stop-color="#99FF5A"/>
<stop offset="0.32953" stop-color="#99FF5A"/>
<stop offset="0.503128" stop-color="#99FF5A"/>
<stop offset="0.639115" stop-color="#99FF5A" stop-opacity="0"/>
<stop offset="0.734924" stop-color="#99FF5A" stop-opacity="0"/>
<stop offset="0.87193" stop-color="#99FF5A"/>
<stop offset="0.99363" stop-color="#99FF5A"/>
</radialGradient>
<radialGradient id="paint34_angular_102_9" cx="0" cy="0" r="1" gradientUnits="userSpaceOnUse" gradientTransform="translate(124.067 102.343) rotate(-65.3595) scale(107.939 93.6267)">
<stop offset="0.0666082" stop-color="#99FF5A"/>
<stop offset="0.32953" stop-color="#99FF5A"/>
<stop offset="0.503128" stop-color="#99FF5A"/>
<stop offset="0.639115" stop-color="#99FF5A" stop-opacity="0"/>
<stop offset="0.734924" stop-color="#99FF5A" stop-opacity="0"/>
<stop offset="0.87193" stop-color="#99FF5A"/>
<stop offset="0.99363" stop-color="#99FF5A"/>
</radialGradient>
<radialGradient id="paint35_angular_102_9" cx="0" cy="0" r="1" gradientUnits="userSpaceOnUse" gradientTransform="translate(124.067 102.343) rotate(-65.3595) scale(107.939 93.6267)">
<stop offset="0.0666082" stop-color="#99FF5A"/>
<stop offset="0.32953" stop-color="#99FF5A"/>
<stop offset="0.503128" stop-color="#99FF5A"/>
<stop offset="0.639115" stop-color="#99FF5A" stop-opacity="0"/>
<stop offset="0.734924" stop-color="#99FF5A" stop-opacity="0"/>
<stop offset="0.87193" stop-color="#99FF5A"/>
<stop offset="0.99363" stop-color="#99FF5A"/>
</radialGradient>
<radialGradient id="paint36_angular_102_9" cx="0" cy="0" r="1" gradientUnits="userSpaceOnUse" gradientTransform="translate(124.067 102.343) rotate(-65.3595) scale(107.939 93.6267)">
<stop offset="0.0666082" stop-color="#99FF5A"/>
<stop offset="0.32953" stop-color="#99FF5A"/>
<stop offset="0.503128" stop-color="#99FF5A"/>
<stop offset="0.639115" stop-color="#99FF5A" stop-opacity="0"/>
<stop offset="0.734924" stop-color="#99FF5A" stop-opacity="0"/>
<stop offset="0.87193" stop-color="#99FF5A"/>
<stop offset="0.99363" stop-color="#99FF5A"/>
</radialGradient>
<radialGradient id="paint37_angular_102_9" cx="0" cy="0" r="1" gradientUnits="userSpaceOnUse" gradientTransform="translate(124.067 102.343) rotate(-65.3595) scale(107.939 93.6267)">
<stop offset="0.0666082" stop-color="#99FF5A"/>
<stop offset="0.32953" stop-color="#99FF5A"/>
<stop offset="0.503128" stop-color="#99FF5A"/>
<stop offset="0.639115" stop-color="#99FF5A" stop-opacity="0"/>
<stop offset="0.734924" stop-color="#99FF5A" stop-opacity="0"/>
<stop offset="0.87193" stop-color="#99FF5A"/>
<stop offset="0.99363" stop-color="#99FF5A"/>
</radialGradient>
<radialGradient id="paint38_angular_102_9" cx="0" cy="0" r="1" gradientUnits="userSpaceOnUse" gradientTransform="translate(124.067 102.343) rotate(-65.3595) scale(107.939 93.6267)">
<stop offset="0.0666082" stop-color="#99FF5A"/>
<stop offset="0.32953" stop-color="#99FF5A"/>
<stop offset="0.503128" stop-color="#99FF5A"/>
<stop offset="0.639115" stop-color="#99FF5A" stop-opacity="0"/>
<stop offset="0.734924" stop-color="#99FF5A" stop-opacity="0"/>
<stop offset="0.87193" stop-color="#99FF5A"/>
<stop offset="0.99363" stop-color="#99FF5A"/>
</radialGradient>
<radialGradient id="paint39_angular_102_9" cx="0" cy="0" r="1" gradientUnits="userSpaceOnUse" gradientTransform="translate(124.067 102.343) rotate(-65.3595) scale(107.939 93.6267)">
<stop offset="0.0666082" stop-color="#99FF5A"/>
<stop offset="0.32953" stop-color="#99FF5A"/>
<stop offset="0.503128" stop-color="#99FF5A"/>
<stop offset="0.639115" stop-color="#99FF5A" stop-opacity="0"/>
<stop offset="0.734924" stop-color="#99FF5A" stop-opacity="0"/>
<stop offset="0.87193" stop-color="#99FF5A"/>
<stop offset="0.99363" stop-color="#99FF5A"/>
</radialGradient>
<radialGradient id="paint40_angular_102_9" cx="0" cy="0" r="1" gradientUnits="userSpaceOnUse" gradientTransform="translate(124.067 102.343) rotate(-65.3595) scale(107.939 93.6267)">
<stop offset="0.0666082" stop-color="#99FF5A"/>
<stop offset="0.32953" stop-color="#99FF5A"/>
<stop offset="0.503128" stop-color="#99FF5A"/>
<stop offset="0.639115" stop-color="#99FF5A" stop-opacity="0"/>
<stop offset="0.734924" stop-color="#99FF5A" stop-opacity="0"/>
<stop offset="0.87193" stop-color="#99FF5A"/>
<stop offset="0.99363" stop-color="#99FF5A"/>
</radialGradient>
<radialGradient id="paint41_angular_102_9" cx="0" cy="0" r="1" gradientUnits="userSpaceOnUse" gradientTransform="translate(124.067 102.343) rotate(-65.3595) scale(107.939 93.6267)">
<stop offset="0.0666082" stop-color="#99FF5A"/>
<stop offset="0.32953" stop-color="#99FF5A"/>
<stop offset="0.503128" stop-color="#99FF5A"/>
<stop offset="0.639115" stop-color="#99FF5A" stop-opacity="0"/>
<stop offset="0.734924" stop-color="#99FF5A" stop-opacity="0"/>
<stop offset="0.87193" stop-color="#99FF5A"/>
<stop offset="0.99363" stop-color="#99FF5A"/>
</radialGradient>
</defs>
</svg>
